HIERARCHY
ROOT Hips
{
	OFFSET 0.00000 0.00000 0.00000
	CHANNELS 6 Xposition Yposition Zposition Zrotation Yrotation Xrotation 
	JOINT LHipJoint
	{
		OFFSET 0 0 0
		CHANNELS 3 Zrotation Yrotation Xrotation
		JOINT LeftHip
		{
			OFFSET 1.54859 -1.61379 0.86856
			CHANNELS 3 Zrotation Yrotation Xrotation
			JOINT LeftKnee
			{
				OFFSET 2.25087 -6.18423 0.00000
				CHANNELS 3 Zrotation Yrotation Xrotation
				JOINT LeftAnkle
				{
					OFFSET 2.40328 -6.60297 0.00000
					CHANNELS 3 Zrotation Yrotation Xrotation
					JOINT LeftToe
					{
						OFFSET 0.17435 -0.47901 2.02453
						CHANNELS 3 Zrotation Yrotation Xrotation
						End Site
						{
							OFFSET 0.00000 -0.00000 1.04844
						}
					}
				}
			}
		}
	}
	JOINT RHipJoint
	{
		OFFSET 0 0 0
		CHANNELS 3 Zrotation Yrotation Xrotation
		JOINT RightHip
		{
			OFFSET -1.54669 -1.61379 0.86856
			CHANNELS 3 Zrotation Yrotation Xrotation
			JOINT RightKnee
			{
				OFFSET -2.28132 -6.26789 0.00000
				CHANNELS 3 Zrotation Yrotation Xrotation
				JOINT RightAnkle
				{
					OFFSET -2.51636 -6.91365 0.00000
					CHANNELS 3 Zrotation Yrotation Xrotation
					JOINT RightToe
					{
						OFFSET -0.15124 -0.41552 2.21090
						CHANNELS 3 Zrotation Yrotation Xrotation
						End Site
						{
							OFFSET -0.00000 -0.00000 1.13399
						}
					}
				}
			}
		}
	}
	JOINT lowerback
	{
		OFFSET 0 0 0
		CHANNELS 3 Zrotation Yrotation Xrotation
		JOINT Chest
		{
			OFFSET -0.04287 2.26161 -0.25690
			CHANNELS 3 Zrotation Yrotation Xrotation
			JOINT Chest2
			{
				OFFSET 0.02248 2.28395 -0.10140
				CHANNELS 3 Zrotation Yrotation Xrotation
				JOINT lowerneck
				{
					OFFSET 0 0 0
					CHANNELS 3 Zrotation Yrotation Xrotation
					JOINT Neck
					{
						OFFSET -0.11644 1.38496 0.11345
						CHANNELS 3 Zrotation Yrotation Xrotation
						JOINT Head
						{
							OFFSET 0.29383 1.36600 0.06642
							CHANNELS 3 Zrotation Yrotation Xrotation
							End Site
							{
								OFFSET 0.11075 1.41395 -0.00294
							}
						}
					}
				}
				JOINT LeftCollar
				{
					OFFSET 0 0 0
					CHANNELS 3 Zrotation Yrotation Xrotation
					JOINT LeftShoulder
					{
						OFFSET 3.51628 0.59542 -0.30346
CHANNELS 3 Zrotation Xrotation Yrotation
						JOINT LeftElbow
						{
OFFSET 0 -4.764050 0.000000
CHANNELS 3 Zrotation Xrotation Yrotation
							JOINT LeftWrist
							{
OFFSET 0 -3.137590 -0.000000
CHANNELS 3 Zrotation Xrotation Yrotation
								JOINT lhand
								{
									OFFSET 0 0 0
CHANNELS 3 Zrotation Xrotation Yrotation
									JOINT LFingers
									{
OFFSET 0 -0.732260 -0.000000
CHANNELS 3 Zrotation Xrotation Yrotation
										End Site
										{
OFFSET 0 -0.590370 -0.000000
										}
									}
								}
								JOINT LThumb
								{
OFFSET 0 0.000000 0.000000
CHANNELS 3 Zrotation Xrotation Yrotation
									End Site
									{
OFFSET 0 -0.599380 0.599380
									}
								}
							}
						}
					}
				}
				JOINT RightCollar
				{
					OFFSET 0 0 0
					CHANNELS 3 Zrotation Yrotation Xrotation
					JOINT RightShoulder
					{
						OFFSET -3.30990 0.84213 -0.36430
CHANNELS 3 Zrotation Xrotation Yrotation
						JOINT RightElbow
						{
OFFSET 0 -5.101610 -0.000000
CHANNELS 3 Zrotation Xrotation Yrotation
							JOINT RightWrist
							{
OFFSET 0 -3.232670 -0.000000
CHANNELS 3 Zrotation Xrotation Yrotation
								JOINT rhand
								{
									OFFSET 0 0 0
CHANNELS 3 Zrotation Xrotation Yrotation
									JOINT RFingers
									{
OFFSET 0 -0.702000 -0.000000
CHANNELS 3 Zrotation Xrotation Yrotation
										End Site
										{
OFFSET 0 -0.565970 -0.000000
										}
									}
								}
								JOINT RThumb
								{
OFFSET 0 0.000000 0.000000
CHANNELS 3 Zrotation Xrotation Yrotation
									End Site
									{
OFFSET 0 -0.574610 0.574610
									}
								}
							}
						}
					}
				}
			}
		}
	}
}
MOTION
Frames: 10
Frame Time: .0083333
24.8489 13.1268 1.3154 182.6840 -45.8672 -170.2330 0.0000 0.0000 0.0000 -14.4094 15.3745 -75.7700 20.4016 19.9961 91.1743 1.1643 3.2673 -21.7999 0.0190 -0.8895 -2.4449 0.0000 0.0000 0.0000 -2.4002 -16.6380 -33.4432 -9.8738 -17.3383 59.0658 -2.8254 -3.5346 -33.1632 -8.6988 16.6099 -55.0424 6.2491 1.8492 29.3224 0.5326 1.7905 12.7465 -3.4857 0.2403 -1.4689 -8.9995 8.5079 -12.8965 -1.2091 10.3460 -24.3559 1.0243 4.9845 -5.9099 0.0000 -0.0000 0.0000 1.3298 1.276 -28.4012 29.8593 -40.7725 11.3176 12.7758 -22.225 -18.1704 0.0 0.0 0.0 -7.1250 0.0 0.0 -14.7458 48.0166 1.1203 0.0000 -0.0000 0.0000 -2.1781 -39.1753 42.163 -30.9099 -41.6606 -12.0099 -33.3705 -28.1816 -29.1996 0.0 0.0 0.0 7.1250 0.0 -0.0 -1.4579 -3.8009 -1.5519
24.6288 13.1041 1.3097 182.9820 -45.7922 -170.4150 0.0000 0.0000 0.0000 -13.3621 15.4591 -76.3300 20.1344 19.9996 90.3931 1.1776 3.1536 -21.8569 0.0016 -0.2609 -0.7169 0.0000 0.0000 0.0000 -2.9091 -17.1812 -32.3783 -9.5952 -17.1759 58.1267 -2.8395 -3.1924 -33.1017 -8.6996 16.6105 -55.0453 6.0289 2.0173 29.3395 0.4311 1.9100 12.8689 -3.5053 0.2906 -1.3345 -9.1694 8.3300 -13.1734 -1.0313 10.2233 -23.8138 1.1280 4.9453 -5.7043 0.0000 -0.0000 0.0000 2.7822 2.2001 -29.4553 31.3176 -41.9963 12.2818 13.0407 -21.5434 -17.6125 0.0 0.0 0.0 -7.1250 0.0 0.0 -14.3043 47.5047 0.9016 0.0000 -0.0000 0.0000 -1.6671 -39.9863 43.7178 -34.1662 -44.2075 -14.2288 -33.0228 -28.7018 -29.1497 0.0 0.0 0.0 7.1250 0.0 -0.0 -1.2702 -3.6443 -1.3486
24.4093 13.0154 1.2922 183.2740 -45.8313 -170.6150 0.0000 0.0000 0.0000 -12.1914 15.7241 -77.3686 20.0469 19.9999 90.1372 1.1484 2.9994 -21.5276 0.0013 -0.2336 -0.6419 0.0000 0.0000 0.0000 -3.5749 -17.7924 -31.2644 -9.3279 -17.0142 57.2174 -2.8476 -2.7407 -32.9670 -8.6905 16.6044 -55.0135 5.7773 2.2111 29.2606 0.3440 2.0757 12.9222 -3.5023 0.3680 -1.2352 -9.8408 8.0285 -12.9861 -0.3235 10.0302 -23.4703 1.4548 4.8990 -5.6858 -0.0000 0.0000 0.0000 4.3245 3.3126 -30.3917 33.4012 -43.6362 13.6982 12.9811 -21.6905 -17.7144 0.0 0.0 0.0 -7.1250 0.0 0.0 -14.3946 47.5968 0.9408 -0.0000 0.0000 0.0000 -1.4206 -40.4655 44.8437 -37.7050 -46.6499 -16.7507 -32.6756 -29.352 -29.5708 0.0 0.0 0.0 7.1250 0.0 -0.0 -0.9863 -3.9991 -1.0529
24.1834 12.9589 1.2719 183.7010 -46.0443 -170.9280 0.0000 0.0000 0.0000 -10.9813 15.7524 -77.9423 19.9181 19.9998 89.7606 1.1420 2.7807 -21.3648 0.0056 -0.4837 -1.3292 0.0000 0.0000 0.0000 -4.0038 -18.3979 -29.7533 -8.9194 -16.7556 55.8110 -2.7585 -3.1469 -32.6275 -8.7317 16.6320 -55.1577 5.5480 2.4396 29.2498 0.2785 2.3175 12.8960 -3.5120 0.4841 -1.2504 -9.5998 8.0093 -12.7550 -0.4484 9.9940 -23.3176 1.3709 4.8884 -5.6459 -0.0000 0.0000 0.0000 6.0552 4.4355 -31.5267 35.6279 -45.2553 15.2576 13.4902 -22.3196 -17.0798 0.0 0.0 0.0 -7.1250 0.0 0.0 -13.7100 47.0394 0.7027 -0.0000 0.0000 0.0000 -1.4934 -40.599 45.3811 -41.6048 -48.9924 -19.6418 -32.9142 -30.6507 -30.8128 0.0 0.0 0.0 7.1250 0.0 -0.0 -0.8603 -5.409 -0.9376
23.9453 12.9303 1.2490 184.3260 -46.3474 -171.4970 0.0000 0.0000 0.0000 -9.9009 16.0047 -78.2777 19.8047 19.9991 89.4291 1.1560 2.4916 -21.3484 0.0974 -2.0123 -5.5395 0.0000 0.0000 0.0000 -4.2116 -18.7431 -27.7867 -8.4225 -16.4214 54.0707 -2.6391 -3.7963 -32.2175 -8.7719 16.6587 -55.2981 5.3913 2.7018 29.2938 0.2235 2.6051 12.9308 -3.5647 0.6222 -1.2113 -9.9236 7.4854 -12.6126 0.2887 9.4639 -22.9357 1.6672 4.6424 -5.5643 -0.0000 0.0000 0.0000 7.9504 5.1988 -32.6273 37.7750 -46.695 16.8017 13.0905 -22.8427 -17.8346 0.0 0.0 0.0 -7.1250 0.0 0.0 -14.3353 47.7303 0.9848 -0.0000 0.0000 0.0000 -1.8581 -40.7466 45.3703 -45.7203 -51.1165 -22.7981 -33.6379 -32.017 -31.8944 0.0 0.0 0.0 7.1250 0.0 -0.0 -1.0243 -6.792 -1.1384
23.6897 12.9137 1.2204 185.0710 -46.7009 -172.2560 0.0000 0.0000 0.0000 -8.8291 16.2970 -78.3716 19.7123 19.9980 89.1588 1.0626 2.2135 -20.3880 0.1823 -2.7497 -7.5827 0.0000 0.0000 0.0000 -4.3198 -18.9916 -25.3979 -7.8041 -15.9733 51.8540 -2.4900 -4.3851 -31.6113 -8.7846 16.6671 -55.3421 5.1980 2.9523 29.3162 0.2100 2.8605 12.9996 -3.5407 0.7399 -1.1326 -9.8117 7.3545 -12.6045 0.7967 9.3988 -22.6609 1.8149 4.5924 -5.4845 -0.0000 -0.0000 0.0000 9.9096 5.6912 -33.5311 39.7576 -47.9256 18.2591 14.5423 -22.765 -16.5444 0.0 0.0 0.0 -7.1250 0.0 0.0 -12.5706 46.6456 0.5185 -0.0000 -0.0000 0.0000 -2.4332 -40.9962 45.0908 -49.6482 -52.8526 -25.8935 -34.2141 -32.8281 -32.6974 0.0 0.0 0.0 7.1250 0.0 -0.0 -1.1554 -7.8343 -1.3024
23.4213 12.8971 1.1819 185.6140 -47.1995 -172.8370 0.0000 0.0000 0.0000 -7.9792 16.4421 -78.3040 19.6728 19.9974 89.0433 0.9772 1.4788 -19.2643 0.2395 -3.1492 -8.6944 0.0000 0.0000 0.0000 -4.5792 -19.3679 -22.7190 -7.0905 -15.4076 49.2158 -2.3092 -5.0736 -30.8579 -8.7916 16.6717 -55.3665 4.7632 3.1736 29.2209 0.1726 3.0346 13.0193 -3.3795 0.8142 -1.0853 -9.5067 6.6658 -12.7858 1.0315 8.5340 -21.9130 1.8758 4.1506 -5.1548 0.0000 0.0000 0.0000 11.8982 6.0162 -34.1282 41.5707 -48.9734 19.6161 15.0662 -22.3842 -15.602 0.0 0.0 0.0 -7.1250 0.0 0.0 -11.8101 45.7688 0.2273 0.0000 0.0000 0.0000 -3.2534 -41.0214 44.5265 -53.5717 -54.3383 -29.052 -34.8096 -33.4019 -33.5201 0.0 0.0 0.0 7.1250 0.0 -0.0 -1.2814 -8.9067 -1.4647
23.1413 12.8832 1.1341 185.8350 -47.9316 -173.1450 0.0000 0.0000 0.0000 -7.5747 16.3915 -78.0968 19.7040 19.9979 89.1344 0.8851 0.5830 -17.9994 0.3008 -3.5266 -9.7485 0.0000 0.0000 0.0000 -5.0597 -19.6688 -19.5699 -6.2947 -14.7080 46.1533 -2.0703 -6.2618 -29.9990 -8.8283 16.6959 -55.4944 4.0291 3.3812 29.0270 0.1493 3.1442 12.9663 -3.0127 0.8508 -1.1099 -9.9770 6.8880 -12.1581 1.9219 9.0467 -21.7258 2.1959 4.4346 -5.2766 0.0000 0.0000 0.0000 13.8897 6.0938 -34.5871 43.2265 -49.8694 20.8737 15.3396 -21.9342 -14.9882 0.0 0.0 0.0 -7.1250 0.0 0.0 -11.3896 45.1847 0.0526 0.0000 0.0000 0.0000 -4.4113 -40.6993 43.4444 -57.5401 -55.618 -32.3025 -35.4935 -34.0961 -34.4285 0.0 0.0 0.0 7.1250 0.0 -0.0 -1.4212 -10.1028 -1.6489
22.8557 12.8700 1.0803 186.0340 -48.8263 -173.4110 0.0000 0.0000 0.0000 -7.3362 16.2071 -77.7567 19.8041 19.9991 89.4273 0.7947 -0.4857 -16.6902 0.3751 -3.9337 -10.8903 0.0000 0.0000 0.0000 -5.4453 -19.5083 -15.8399 -5.4052 -13.8261 42.5453 -1.7952 -7.6715 -29.0531 -8.8590 16.7161 -55.6011 3.1476 3.5710 28.8034 0.1813 3.2210 12.8386 -2.4932 0.8681 -1.2238 -10.4116 6.2291 -12.4227 2.9664 8.4326 -20.6058 2.6254 4.1502 -4.8942 0.0000 -0.0000 0.0000 15.8609 5.8492 -34.8821 44.6492 -50.5955 21.9674 15.4731 -21.5472 -15.06 0.0 0.0 0.0 -7.1250 0.0 0.0 -11.2879 45.2732 0.0771 0.0000 -0.0000 0.0000 -5.759 -40.1172 41.9732 -61.3523 -56.6597 -35.4686 -36.3751 -35.0494 -35.2471 0.0 0.0 0.0 7.1250 0.0 -0.0 -1.6741 -11.277 -1.9699
22.5633 12.8473 1.0206 186.4930 -49.7520 -173.8130 0.0000 0.0000 0.0000 -7.1166 16.2818 -77.5442 20.0013 20.0000 90.0038 0.6738 -1.9172 -14.9714 0.3835 -3.9770 -11.0121 0.0000 0.0000 0.0000 -5.4590 -18.6589 -11.6690 -4.4844 -12.7785 38.5448 -1.5624 -8.7551 -28.1988 -8.8563 16.7144 -55.5920 2.3151 3.7349 28.4822 0.2209 3.2932 12.6632 -1.9897 0.8912 -1.3420 -10.8028 5.5969 -11.5934 4.3678 7.7363 -20.9541 3.1280 3.7772 -5.1349 -0.0000 0.0000 0.0000 17.8616 5.3741 -34.9902 45.9250 -51.2137 22.9576 15.8174 -21.014 -15.4198 0.0 0.0 0.0 -7.1250 0.0 0.0 -11.0727 45.6785 0.1877 -0.0000 0.0000 0.0000 -7.1945 -39.2367 40.2262 -65.0975 -57.522 -38.6132 -37.688 -36.4888 -35.9161 0.0 0.0 0.0 7.1250 0.0 -0.0 -2.1769 -12.4604 -2.597
